<?xml version="1.0" standalone="no"?>
<!DOCTYPE svg PUBLIC "-//W3C//DTD SVG 20010904//EN"
 "http://www.w3.org/TR/2001/REC-SVG-20010904/DTD/svg10.dtd">
<svg version="1.0" xmlns="http://www.w3.org/2000/svg"
 width="310.000000pt" height="310.000000pt" viewBox="0 0 310.000000 310.000000"
 preserveAspectRatio="xMidYMid meet">
<metadata>
Created by potrace 1.11, written by Peter Selinger 2001-2013
</metadata>
<g transform="translate(0.000000,310.000000) scale(0.100000,-0.100000)"
fill="#000000" stroke="none">
<path d="M1518 2389 c-77 -78 -121 -145 -134 -201 -7 -33 -7 -133 0 -156 4
-11 9 -30 11 -41 5 -28 34 -88 64 -136 29 -44 26 -41 109 -145 75 -95 101
-144 109 -208 5 -45 3 -53 -22 -77 -25 -26 -31 -27 -88 -23 -34 3 -114 22
-177 43 -63 20 -143 40 -176 42 -53 5 -64 3 -82 -15 -31 -31 -22 -70 30 -130
37 -44 143 -106 231 -136 55 -19 217 -46 217 -37 0 3 -23 17 -50 31 -54 26
-98 65 -86 77 4 4 68 8 144 9 182 2 222 10 279 58 34 28 56 94 47 140 -19 106
-101 238 -250 403 -130 144 -173 232 -167 342 4 78 22 138 59 194 14 22 23 41
20 44 -3 3 -42 -32 -88 -78z"/>
<path d="M1348 2253 c-28 -31 -86 -146 -102 -203 -53 -180 -29 -317 82 -470
80 -110 184 -156 233 -104 18 19 21 30 15 65 -8 51 -29 81 -121 179 -86 90
-120 140 -138 200 -24 83 -8 227 35 313 20 41 19 46 -4 20z"/>
<path d="M1161 1863 c-40 -77 -47 -193 -14 -256 29 -57 79 -93 113 -82 24 8
19 21 -34 103 -23 35 -41 66 -42 70 0 4 -4 14 -7 22 -11 25 -14 80 -7 121 8
43 6 48 -9 22z"/>
<path d="M831 934 c-34 -28 -44 -59 -25 -75 11 -9 14 -7 14 14 0 14 11 39 25
54 21 24 24 25 25 9 0 -37 -35 -126 -52 -132 -10 -3 -18 -10 -18 -15 0 -6 5
-7 10 -4 14 9 13 -6 -9 -85 -12 -41 -16 -72 -10 -75 10 -7 18 11 45 102 l18
61 44 4 c24 2 45 1 47 -3 2 -3 -3 -32 -11 -64 -15 -58 -12 -105 6 -105 6 0 10
12 11 28 2 68 21 147 36 147 6 0 15 3 19 8 4 4 0 7 -10 7 -18 0 -16 18 11 94
16 46 16 46 4 46 -5 0 -19 -31 -31 -69 l-21 -68 -44 0 c-52 0 -53 4 -29 78 9
27 14 53 10 56 -14 15 -38 10 -65 -13z"/>
<path d="M1461 945 c-18 -6 -29 -13 -26 -17 4 -4 15 -2 26 5 25 16 32 5 18
-29 -41 -102 -77 -220 -68 -229 12 -12 26 3 33 35 16 78 21 85 62 90 39 5 89
-13 98 -36 2 -5 -2 -24 -9 -40 -16 -38 -67 -64 -141 -71 -33 -4 -53 -10 -51
-17 11 -33 146 -4 189 41 42 45 38 107 -8 119 -31 8 -31 18 1 32 14 7 29 22
34 34 27 74 -55 118 -158 83z m119 -15 c46 -46 9 -99 -80 -115 -28 -5 -31 -3
-25 12 4 10 11 32 16 48 22 76 50 94 89 55z"/>
<path d="M1227 874 c-13 -21 -27 -49 -31 -61 -4 -13 -12 -23 -17 -23 -6 0 -8
-4 -5 -9 3 -5 0 -26 -7 -47 -8 -22 -11 -50 -7 -64 9 -36 56 -39 93 -5 32 31
37 47 5 18 -50 -44 -74 -36 -69 26 3 52 15 67 57 69 53 4 56 12 6 12 l-41 0
28 49 c36 61 26 94 -12 35z"/>
<path d="M2221 799 c-5 -15 -5 -29 1 -36 24 -30 12 -113 -16 -113 -17 0 -39
34 -29 44 4 3 16 -2 27 -11 l21 -18 -20 23 c-16 19 -17 26 -7 42 20 33 14 33
-18 2 -16 -17 -30 -35 -30 -41 0 -13 -39 -35 -48 -27 -3 3 -1 21 5 39 11 38 1
77 -22 77 -8 0 -29 -14 -47 -31 l-33 -31 33 19 c28 15 34 16 42 3 5 -8 5 -21
-1 -32 -23 -42 25 -80 59 -46 9 9 16 7 32 -10 22 -23 52 -22 80 3 18 17 19 30
4 100 -4 22 -8 43 -9 47 -1 19 -16 18 -24 -3z"/>
<path d="M1699 787 c-55 -37 -76 -96 -46 -134 11 -15 77 -17 77 -3 0 6 -10 8
-24 4 -18 -4 -27 -1 -35 14 -12 22 2 42 31 42 23 0 68 46 68 69 0 11 -7 22
-16 25 -21 8 -16 9 -55 -17z m51 -10 c0 -16 -24 -39 -58 -56 -22 -12 -23 -11
-11 11 26 50 69 78 69 45z"/>
<path d="M1073 780 c-3 -11 -14 -20 -24 -20 -29 0 -56 -62 -41 -95 14 -30 31
-32 65 -5 14 11 35 20 46 20 12 0 21 4 21 10 0 5 -7 7 -15 4 -18 -7 -18 -9 -1
41 17 48 11 65 -21 65 -16 0 -27 -7 -30 -20z m45 -21 c-3 -39 -23 -58 -31 -28
-6 24 8 59 24 59 5 0 8 -14 7 -31z m-48 -27 c0 -10 5 -23 10 -28 13 -13 -24
-49 -39 -39 -14 8 -14 28 1 60 13 29 28 33 28 7z"/>
<path d="M1823 761 c-51 -51 -87 -101 -74 -101 6 0 11 6 12 13 0 6 5 2 11 -10
13 -27 44 -30 69 -7 17 15 19 15 34 0 20 -20 25 -20 52 -1 16 12 23 12 27 2 3
-8 13 -3 29 16 28 33 36 97 12 97 -8 0 -15 -7 -15 -15 0 -26 -29 -74 -51 -86
-30 -16 -41 1 -24 35 18 35 18 36 0 36 -8 0 -15 -4 -15 -9 0 -4 -16 -25 -36
-46 -32 -34 -37 -37 -46 -22 -16 30 38 117 77 123 8 1 17 -7 21 -18 4 -15 9
-17 17 -8 9 8 7 15 -7 26 -31 22 -52 17 -93 -25z"/>
<path d="M2295 700 c-16 -17 -16 -20 -3 -15 9 4 19 13 22 21 7 19 2 18 -19 -6z"/>
</g>
</svg>
